<svg xmlns="http://www.w3.org/2000/svg" width="260" height="64" viewBox="0 0 260 64" role="img" aria-label="DMsys Logo">
  <defs>
    <linearGradient id="g2" x1="0" y1="0" x2="1" y2="1">
      <stop offset="0" stop-color="#2DD4BF"/>
      <stop offset="1" stop-color="#2563EB"/>
    </linearGradient>
  </defs>

  <!-- Icon -->
  <g transform="translate(0,0)">
    <rect x="6" y="6" width="52" height="52" rx="14" fill="url(#g2)"/>
    <path d="M22 20h8.2c8.7 0 14.8 6.2 14.8 14s-6.1 14-14.8 14H22V20z" fill="#fff" fill-opacity="0.95"/>
    <path d="M27.5 25.5h2.2c6.1 0 10.3 4.4 10.3 8.5s-4.2 8.5-10.3 8.5h-2.2V25.5z" fill="#0B1220" fill-opacity="0.35"/>
    <g transform="translate(39,17)">
      <rect x="0" y="0" width="16" height="16" rx="6" fill="#0B1220" fill-opacity="0.22"/>
      <path d="M8 3.8c.5 0 .8.3.8.8v2.2H11c.4 0 .8.3.8.8v1.2c0 .4-.3.8-.8.8H8.8v2.2c0 .4-.3.8-.8.8H6.8c-.4 0-.8-.3-.8-.8V9.6H3.8c-.4 0-.8-.3-.8-.8V7.6c0-.4.3-.8.8-.8H6V4.6c0-.5.3-.8.8-.8H8z" fill="#fff" fill-opacity="0.95"/>
    </g>
  </g>

  <!-- Wordmark -->
  <g transform="translate(72,40)">
    <text x="0" y="0"
          font-family="Inter, system-ui, -apple-system, Segoe UI, Roboto, Arial, sans-serif"
          font-size="28"
          font-weight="800"
          letter-spacing="0.2">
      <tspan fill="#ffffff">DM</tspan>
      <tspan fill="#93C5FD">sys</tspan>
    </text>
  </g>

  <!-- optional tagline (hidden by default) -->
  <!--
  <text x="72" y="55" font-family="Inter, Arial" font-size="12" fill="#9CA3AF">Device Maintenance System</text>
  -->
</svg>
